<?xml version="1.0" standalone="no"?><!DOCTYPE svg PUBLIC "-//W3C//DTD SVG 1.1//EN" "http://www.w3.org/Graphics/SVG/1.1/DTD/svg11.dtd"><svg t="1626969451026" class="icon" viewBox="0 0 1172 1024" version="1.1" xmlns="http://www.w3.org/2000/svg" p-id="5725" xmlns:xlink="http://www.w3.org/1999/xlink" width="228.90625" height="200"><defs><style type="text/css"></style></defs><path d="M927.232 755.809524 927.232 682.666667 1171.041524 682.666667 1171.041524 755.809524 927.232 755.809524ZM854.089143 512 1171.041524 512 1171.041524 585.142857 854.089143 585.142857 854.089143 512ZM927.232 341.333333 1171.041524 341.333333 1171.041524 414.47619 927.232 414.47619 927.232 341.333333ZM1009.785905 911.701333C1019.855238 932.717714 1024.999619 967.119238 1024.292571 1005.568 1024.292571 1010.127238 1024.707048 1014.564571 1022.488381 1018.270476 1020.342857 1021.854476 1016.856381 1023.975619 1013.272381 1023.975619L11.824762 1023.975619C8.094476 1023.975619 4.656762 1021.854476 2.462476 1018.270476 0.24381 1014.564571 0.658286 1009.980952 0.658286 1005.568 0.390095 971.264 3.535238 941.421714 21.528381 902.972952 82.236952 773.705143 470.625524 760.417524 347.794286 578.998857 273.310476 486.838857 249.246476 420.839619 249.246476 322.413714 249.246476 144.579048 367.85981 0 513.26781 0 658.797714 0 777.118476 144.579048 777.142857 322.413714 777.142857 420.839619 729.35619 512.707048 671.524571 580.705524 494.86019 786.553905 945.322667 776.43581 1009.785905 911.701333ZM513.26781 73.142857C409.795048 73.142857 322.389333 187.270095 322.389333 322.462476 322.389333 445.830095 407.137524 536.30781 408.356571 538.014476 441.977905 587.727238 452.144762 636.708571 438.198857 683.446857 412.135619 770.998857 326.582857 812.568381 231.18019 852.72381 178.93181 874.617905 100.08381 907.776 87.722667 934.13181 84.943238 939.983238 82.724571 945.566476 80.944762 950.832762L946.322286 950.832762C945.39581 947.126857 944.469333 944.615619 943.88419 943.274667 931.547429 917.406476 841.411048 885.613714 787.577905 866.620952 682.886095 829.70819 587.824762 791.552 563.126857 699.221333 548.985905 646.339048 566.832762 590.409143 616.033524 533.138286 683.081143 454.265905 704 383.292952 704 322.413714 704 185.002667 618.447238 73.142857 513.26781 73.142857Z" p-id="5726"></path></svg>