<?xml version="1.0" standalone="no"?><!DOCTYPE svg PUBLIC "-//W3C//DTD SVG 1.1//EN" "http://www.w3.org/Graphics/SVG/1.1/DTD/svg11.dtd"><svg t="1626969054021" class="icon" viewBox="0 0 1024 1024" version="1.1" xmlns="http://www.w3.org/2000/svg" p-id="1510" xmlns:xlink="http://www.w3.org/1999/xlink" width="200" height="200"><defs><style type="text/css"></style></defs><path d="M877.714286 877.714286H146.285714V512a73.142857 73.142857 0 1 0-146.285714 0v438.857143a73.142857 73.142857 0 0 0 73.142857 73.142857h877.714286a73.142857 73.142857 0 0 0 73.142857-73.142857V512a73.142857 73.142857 0 0 0-146.285714 0v365.714286z" p-id="1511"></path><path d="M344.283429 387.145143a73.142857 73.142857 0 0 0-103.424 103.424l219.428571 219.428571a73.142857 73.142857 0 0 0 103.424 0l219.428571-219.428571a73.142857 73.142857 0 1 0-103.424-103.424L512 554.861714 344.283429 387.145143z" p-id="1512"></path><path d="M585.142857 658.285714V73.142857a73.142857 73.142857 0 1 0-146.285714 0v585.142857a73.142857 73.142857 0 1 0 146.285714 0z" p-id="1513"></path></svg>
