<svg id="Group_81" data-name="Group 81" xmlns="http://www.w3.org/2000/svg" width="14.709" height="14.709" viewBox="0 0 14.709 14.709">
  <path id="Icon_awesome-certificate" data-name="Icon awesome-certificate" d="M13.175,7.352,14.5,6.059A.684.684,0,0,0,14.19,4.9l-1.8-.459L12.9,2.659a.7.7,0,0,0-.852-.852l-1.781.508L9.805.514A.689.689,0,0,0,8.647.208L7.354,1.539,6.062.208A.689.689,0,0,0,4.9.514l-.459,1.8L2.663,1.807a.7.7,0,0,0-.852.852l.507,1.782L.519,4.9A.684.684,0,0,0,.212,6.059L1.533,7.352.212,8.645A.684.684,0,0,0,.519,9.8l1.8.459-.507,1.782a.7.7,0,0,0,.852.852l1.781-.508.459,1.8a.683.683,0,0,0,1.158.306l1.292-1.322L8.647,14.5a.686.686,0,0,0,1.158-.306l.459-1.8,1.781.508a.7.7,0,0,0,.852-.852l-.507-1.782,1.8-.459A.684.684,0,0,0,14.5,8.645L13.175,7.352Z" transform="translate(0 0)" fill="#c91313"/>
  <path id="Icon_awesome-exclamation" data-name="Icon awesome-exclamation" d="M3.541,7.512A1.208,1.208,0,1,1,2.333,6.3,1.209,1.209,0,0,1,3.541,7.512ZM1.147,1.963l.2,3.514a.362.362,0,0,0,.362.344H2.951a.362.362,0,0,0,.362-.344l.21-3.514a.362.362,0,0,0-.362-.381H1.509A.362.362,0,0,0,1.147,1.963Z" transform="translate(4.916 2.24)" fill="#fff"/>
</svg>
