<svg id="紙とペンのアイコン素材" xmlns="http://www.w3.org/2000/svg" width="21.001" height="21.462" viewBox="0 0 21.001 21.462">
  <path id="パス_11" data-name="パス 11" d="M17.81,23.066H1.619V11.016H7.852V4.822H17.81V6.408l1.619-1.544V3.213H7.852L1.619,9.407,0,11.016V24.675H19.429V15.2L17.81,16.879Z" transform="translate(0 -3.213)" fill="#fff"/>
  <path id="パス_12" data-name="パス 12" d="M35.228,9.461,32.976,7.208a.508.508,0,0,0-.719,0l-9.511,9.134a.508.508,0,0,0-.127.211l-1.15,3.78a.508.508,0,0,0,.634.634L26,19.78l9.224-9.6A.508.508,0,0,0,35.228,9.461ZM23.614,19.58l-.741-.81.513-1.687,1.279.688.688,1.279ZM33.8,9.1l-8.1,8.155-.515-.515,8.155-8.1L33.8,9.1Z" transform="translate(-14.376 -5.528)" fill="#fff"/>
</svg>
