<?xml version="1.0" encoding="UTF-8" standalone="no"?><svg xmlns:svg="http://www.w3.org/2000/svg" xmlns="http://www.w3.org/2000/svg" xmlns:xlink="http://www.w3.org/1999/xlink" version="1.0" width="63px" height="21px" viewBox="0 0 128 43" xml:space="preserve"><g transform="translate(128,43) scale(-1,-1)"><path fill="#d8e6ea" fill-opacity="0.3" d="M-67.588,0h7.066A2.038,2.038,0,0,1-58.5,2.057V40.943A2.038,2.038,0,0,1-60.522,43h-7.066a2.038,2.038,0,0,1-2.019-2.057V2.057A2.038,2.038,0,0,1-67.588,0Z"/><path fill="#b1ced6" fill-opacity="0.6" d="M-53.052,0h7.066a2.038,2.038,0,0,1,2.019,2.057V40.943A2.038,2.038,0,0,1-45.986,43h-7.066a2.038,2.038,0,0,1-2.019-2.057V2.057A2.038,2.038,0,0,1-53.052,0Z"/><path fill="#7dadba" fill-opacity="1" d="M-38.266,0H-31.2a2.038,2.038,0,0,1,2.019,2.057V40.943A2.038,2.038,0,0,1-31.2,43h-7.066a2.038,2.038,0,0,1-2.019-2.057V2.057A2.038,2.038,0,0,1-38.266,0Z"/><path fill="#b1ced6" fill-opacity="0.6" d="M-23.729,0h7.066a2.038,2.038,0,0,1,2.019,2.057V40.943A2.038,2.038,0,0,1-16.663,43h-7.066a2.038,2.038,0,0,1-2.019-2.057V2.057A2.038,2.038,0,0,1-23.729,0Z"/><path fill="#d8e6ea" fill-opacity="0.3" d="M-9.193,0h7.066A2.038,2.038,0,0,1-.108,2.057V40.943A2.038,2.038,0,0,1-2.127,43H-9.193a2.038,2.038,0,0,1-2.019-2.057V2.057A2.039,2.039,0,0,1-9.193,0Z"/><animateTransform attributeName="transform" type="translate" values="11.5 0;26 0;40.5 0;55 0;69.5 0;84 0;98.5 0;113 0;127.5 0;142 0;156.5 0;171 0;185.5 0" calcMode="discrete" dur="1080ms" repeatCount="indefinite"/></g></svg>
